<svg width="14" height="14" viewBox="0 0 14 14" fill="none" xmlns="http://www.w3.org/2000/svg">
<g id="plane-trip-1 2" clip-path="url(#clip0_33_925)">
<path id="Vector" d="M6.95295 12.4165H7.383C7.49952 12.4165 7.61401 12.386 7.71506 12.328C7.8161 12.27 7.90018 12.1865 7.95892 12.0858L10.1004 8.4147L12.123 8.4147C12.4476 8.42212 12.7645 8.31501 13.018 8.11216C13.2716 7.9093 13.4456 7.62366 13.5096 7.30531C13.5423 7.1139 13.5327 6.91767 13.4817 6.73033C13.4306 6.54299 13.3393 6.36906 13.214 6.22069C13.0887 6.07232 12.9326 5.95309 12.7565 5.87133C12.5804 5.78957 12.3885 5.74725 12.1943 5.74733L10.1004 5.74764L7.95923 2.07746C7.90051 1.97672 7.8164 1.89314 7.71529 1.83506C7.61418 1.77697 7.49961 1.74642 7.383 1.74643L6.95295 1.74643C6.85161 1.74643 6.75159 1.76953 6.66051 1.81397C6.56942 1.85841 6.48966 1.92303 6.4273 2.00292C6.36493 2.0828 6.32159 2.17585 6.30057 2.275C6.27955 2.37414 6.28141 2.47677 6.306 2.57509L7.09913 5.74796L3.88006 5.94915L3.4016 5.48452C3.34191 5.40019 3.26345 5.33087 3.1724 5.28205C3.08135 5.23322 2.9802 5.20622 2.87693 5.20317L1.9747 5.16356C1.92022 5.1635 1.86655 5.17682 1.81842 5.20234C1.77028 5.22785 1.72913 5.26479 1.6986 5.30992C1.66806 5.35504 1.64906 5.40696 1.64327 5.46114C1.63748 5.51531 1.64507 5.57008 1.66537 5.62064L2.0621 7.04408L1.71787 8.58288C1.69772 8.63349 1.69025 8.68826 1.69613 8.74242C1.702 8.79657 1.72104 8.84847 1.75158 8.89358C1.78211 8.93868 1.82322 8.97564 1.87132 9.00121C1.91942 9.02678 1.97304 9.04019 2.02752 9.04028L2.83134 9.05946C2.94245 9.06275 3.05261 9.03822 3.15182 8.98809C3.25103 8.93797 3.33613 8.86384 3.3994 8.77244L3.88006 8.30687L7.09913 8.41501L6.306 11.5879C6.28141 11.6862 6.27955 11.7888 6.30057 11.888C6.32159 11.9871 6.36493 12.0802 6.4273 12.1601C6.48967 12.2399 6.56942 12.3046 6.66051 12.349C6.75159 12.3934 6.85161 12.4165 6.95295 12.4165Z" fill="white" stroke="#7E869B" stroke-linecap="round" stroke-linejoin="round"/>
</g>
<defs>
<clipPath id="clip0_33_925">
<rect width="14" height="14" fill="white"/>
</clipPath>
</defs>
</svg>
